<?xml version="1.0" encoding="UTF-8" standalone="no" ?>
<!DOCTYPE svg PUBLIC "-//W3C//DTD SVG 1.1//EN" "http://www.w3.org/Graphics/SVG/1.1/DTD/svg11.dtd">
<svg xmlns="http://www.w3.org/2000/svg" xmlns:xlink="http://www.w3.org/1999/xlink" version="1.1" width="400" height="400" viewBox="0 0 400 400" xml:space="preserve">
<desc>Created with Fabric.js 3.6.2</desc>
<defs>
</defs>
<g transform="matrix(4.35 0 0 4.35 200 200)" id="Layer_1"  >
<path style="stroke: none; stroke-width: 1; stroke-dasharray: none; stroke-linecap: butt; stroke-dashoffset: 0; stroke-linejoin: miter; stroke-miterlimit: 4; fill: #000000; fill-rule: evenodd; opacity: 1;"  transform=" translate(-24, -24.5)" d="M 47 40 L 47 40 c 0 2.762 -2.238 5 -5 5 l 0 0 H 6 l 0 0 c -2.762 0 -5 -2.238 -5 -5 V 11 c 0 -2.209 1.791 -4 4 -4 l 0 0 h 20.171 l 8.099 -2.934 c 0.513 -0.187 1.081 0.078 1.268 0.589 L 35.391 7 H 39 c 2.209 0 4 1.791 4 4 v 2 l 0 0 c 2.209 0 4 1.791 4 4 V 40 z M 5 9 L 5 9 c -1.104 0 -2 0.896 -2 2 s 0.896 2 2 2 h 3.445 l 0 0 h 0.189 c 0.013 -0.005 0.021 -0.016 0.034 -0.021 L 19.65 9 H 5 z M 34.078 9.181 l -1.062 -2.924 l -0.001 0 v 0 L 30.964 7 h 0.003 l -5.514 2 h -0.01 l -11.039 4 h 21.062 L 34.078 9.181 z M 41 11 c 0 -1.104 -0.896 -2 -2 -2 h -2.883 l 1.454 4 H 41 l 0 0 V 11 z M 43 15 H 5 l 0 0 c -0.732 0 -1.41 -0.211 -2 -0.555 V 40 c 0 1.657 1.344 3 3 3 h 36 c 1.657 0 3 -1.343 3 -3 v -7 h -4 c -2.209 0 -4 -1.791 -4 -4 s 1.791 -4 4 -4 h 4 v -8 C 45 15.896 44.104 15 43 15 z M 45 31 v -4 h -4 c -1.104 0 -2 0.896 -2 2 s 0.896 2 2 2 H 45 z M 41 28 h 2 v 2 h -2 V 28 z" stroke-linecap="round" />
</g>
</svg>