<?xml version="1.0" encoding="UTF-8" standalone="no" ?>
<!DOCTYPE svg PUBLIC "-//W3C//DTD SVG 1.1//EN" "http://www.w3.org/Graphics/SVG/1.1/DTD/svg11.dtd">
<svg xmlns="http://www.w3.org/2000/svg" xmlns:xlink="http://www.w3.org/1999/xlink" version="1.1" width="400" height="400" viewBox="0 0 400 400" xml:space="preserve">
<desc>Created with Fabric.js 3.6.2</desc>
<defs>
</defs>
<g transform="matrix(4.06 0 0 4.06 200 200)" id="Layer_1"  >
<path style="stroke: none; stroke-width: 1; stroke-dasharray: none; stroke-linecap: butt; stroke-dashoffset: 0; stroke-linejoin: miter; stroke-miterlimit: 4; fill: rgba(250,250,250,0.5); fill-rule: nonzero; opacity: 0.5;"  transform=" translate(-28.35, -29.78)" d="M 28.347 5.157 c -13.6 0 -24.625 11.027 -24.625 24.625 c 0 13.6 11.025 24.623 24.625 24.623 c 13.6 0 24.625 -11.023 24.625 -24.623 C 52.972 16.184 41.946 5.157 28.347 5.157 z M 34.864 29.679 h -4.264 c 0 6.814 0 15.207 0 15.207 h -6.32 c 0 0 0 -8.307 0 -15.207 h -3.006 V 24.31 h 3.006 v -3.479 c 0 -2.49 1.182 -6.377 6.379 -6.377 l 4.68 0.018 v 5.215 c 0 0 -2.846 0 -3.398 0 c -0.555 0 -1.34 0.277 -1.34 1.461 v 3.163 h 4.818 L 34.864 29.679 z" stroke-linecap="round" />
</g>
</svg>